<mxfile host="app.diagrams.net" modified="2023-05-22T08:19:30.110Z" agent="Mozilla/5.0 (Windows NT 10.0; Win64; x64) AppleWebKit/537.36 (KHTML, like Gecko) Chrome/113.0.0.0 Safari/537.36 Edg/113.0.1774.50" version="21.3.0" etag="CTnB_oo7Y36sNnBnX7u5" type="github">
  <diagram name="第 1 页" id="ZUaW-BwCUV3-EWAXDgSl">
    <mxGraphModel>
      <root>
        <mxCell id="0" />
        <mxCell id="1" parent="0" />
      </root>
    </mxGraphModel>
  </diagram>
</mxfile>
